<?xml version="1.0" standalone="no"?>
<!DOCTYPE svg PUBLIC "-//W3C//DTD SVG 20010904//EN"
 "http://www.w3.org/TR/2001/REC-SVG-20010904/DTD/svg10.dtd">
<svg version="1.0" xmlns="http://www.w3.org/2000/svg"
 width="225.000000pt" height="225.000000pt" viewBox="0 0 225.000000 225.000000"
 preserveAspectRatio="xMidYMid meet">

<g transform="translate(0.000000,225.000000) scale(0.100000,-0.100000)"
fill="#000000" stroke="none">
<path d="M292 1958 c-17 -17 -17 -1359 0 -1376 17 -17 1649 -17 1666 0 17 17
17 1359 0 1376 -17 17 -1649 17 -1666 0z m1070 -315 c10 -9 18 -30 18 -47 0
-28 -29 -60 -238 -269 -178 -177 -244 -237 -262 -237 -17 0 -51 27 -117 93
-101 101 -112 128 -71 167 36 33 64 25 129 -37 l60 -57 202 202 c171 171 206
202 231 202 16 0 38 -7 48 -17z m-312 -98 l-44 -45 -213 0 -213 0 0 -270 0
-270 270 0 270 0 0 111 0 110 45 47 45 47 0 -190 c0 -136 -3 -194 -12 -203 -9
-9 -99 -12 -342 -12 -292 0 -331 2 -348 17 -17 15 -18 39 -18 341 0 289 2 327
17 344 15 17 38 18 302 18 l285 0 -44 -45z"/>
<path d="M287 383 c-11 -10 -8 -83 3 -83 6 0 10 7 10 15 0 8 9 15 20 15 11 0
20 5 20 10 0 6 -9 10 -20 10 -11 0 -20 5 -20 10 0 6 11 10 25 10 14 0 25 5 25
10 0 11 -53 14 -63 3z"/>
<path d="M360 345 c0 -25 5 -45 10 -45 6 0 10 8 10 18 1 16 1 16 14 0 7 -10
19 -18 26 -18 10 0 10 3 0 15 -10 12 -10 18 0 30 17 20 -3 45 -36 45 -22 0
-24 -4 -24 -45z m50 15 c0 -5 -7 -10 -15 -10 -8 0 -15 5 -15 10 0 6 7 10 15
10 8 0 15 -4 15 -10z"/>
<path d="M440 345 l0 -45 38 1 c30 2 32 3 10 6 -32 5 -38 23 -8 23 11 0 20 5
20 10 0 6 -9 10 -20 10 -11 0 -20 5 -20 10 0 6 12 10 26 10 14 0 23 4 19 10
-3 6 -19 10 -36 10 -28 0 -29 -2 -29 -45z"/>
<path d="M531 376 c-7 -8 -11 -27 -9 -43 3 -25 8 -29 44 -33 40 -6 41 -6 42
27 2 52 -48 84 -77 49z m57 -29 c2 -12 -1 -15 -12 -11 -12 5 -15 2 -10 -10 3
-9 1 -16 -5 -16 -15 0 -25 26 -17 46 8 20 40 14 44 -9z"/>
<path d="M620 361 c0 -46 10 -61 40 -61 30 0 40 15 40 61 0 42 -18 36 -22 -8
-2 -26 -8 -38 -18 -38 -10 0 -16 12 -18 38 -4 44 -22 50 -22 8z"/>
<path d="M720 345 c0 -44 0 -45 33 -44 21 1 25 3 12 6 -31 7 -42 23 -18 23 12
0 25 5 28 10 4 6 -5 10 -19 10 -14 0 -26 5 -26 10 0 6 11 10 25 10 14 0 25 5
25 10 0 6 -13 10 -30 10 -29 0 -30 -2 -30 -45z"/>
<path d="M797 384 c-11 -11 -8 -84 3 -84 6 0 10 9 10 20 0 11 3 20 8 20 4 0
13 -9 20 -20 20 -32 32 -23 32 25 0 25 -4 45 -10 45 -5 0 -10 -12 -10 -27 l-1
-28 -22 28 c-13 15 -26 24 -30 21z"/>
<path d="M880 380 c0 -5 7 -10 15 -10 10 0 15 -11 15 -35 0 -19 5 -35 10 -35
6 0 10 16 10 35 0 24 5 35 15 35 8 0 15 5 15 10 0 6 -18 10 -40 10 -22 0 -40
-4 -40 -10z"/>
<path d="M970 345 c0 -44 0 -45 33 -44 23 1 26 3 10 6 -19 4 -23 11 -23 44 0
21 -4 39 -10 39 -5 0 -10 -20 -10 -45z"/>
<path d="M1030 383 c0 -5 7 -17 15 -27 8 -11 15 -28 15 -38 0 -10 5 -18 10
-18 6 0 10 9 10 20 0 12 7 32 16 45 9 14 12 25 6 25 -6 0 -16 -8 -22 -17 -10
-17 -10 -17 -20 0 -11 17 -30 24 -30 10z"/>
<path d="M1140 344 c0 -45 0 -45 33 -42 28 3 32 7 33 33 2 38 -12 55 -42 55
-22 0 -24 -4 -24 -46z m50 16 c0 -5 -7 -10 -15 -10 -8 0 -15 5 -15 10 0 6 7
10 15 10 8 0 15 -4 15 -10z m-2 -38 c2 -7 -3 -12 -12 -12 -9 0 -16 7 -16 16 0
17 22 14 28 -4z"/>
<path d="M1236 374 c-34 -34 -9 -78 41 -72 22 2 29 9 31 31 6 50 -38 75 -72
41z m52 -28 c5 -24 -10 -38 -31 -30 -17 6 -23 35 -10 48 12 12 38 1 41 -18z"/>
<path d="M1332 348 c3 -40 5 -43 33 -43 28 0 30 3 33 43 2 23 -1 42 -7 42 -5
0 -11 -17 -13 -37 -2 -21 -7 -38 -13 -38 -5 0 -11 17 -13 38 -2 20 -8 37 -13
37 -6 0 -9 -19 -7 -42z"/>
<path d="M1425 366 c-13 -19 -14 -29 -5 -45 14 -28 65 -29 80 -2 14 28 13 31
-15 31 -14 0 -25 -4 -25 -10 0 -5 5 -10 12 -10 9 0 9 -3 0 -12 -9 -9 -15 -9
-27 3 -21 20 -9 51 19 48 34 -2 42 1 26 11 -25 16 -49 11 -65 -14z"/>
<path d="M1520 345 c0 -25 5 -45 10 -45 6 0 10 7 10 15 0 8 9 15 20 15 11 0
20 -7 20 -15 0 -8 3 -15 8 -15 4 0 5 21 3 48 -3 26 -7 37 -9 25 -4 -30 -42
-32 -42 -3 0 11 -4 20 -10 20 -5 0 -10 -20 -10 -45z"/>
<path d="M1610 381 c0 -5 7 -11 15 -15 9 -3 15 -18 15 -36 0 -16 5 -30 10 -30
6 0 10 16 10 35 0 19 5 35 10 35 6 0 10 5 10 10 0 6 -16 10 -35 10 -19 0 -35
-4 -35 -9z"/>
<path d="M280 240 c0 -5 7 -10 15 -10 10 0 15 -11 15 -35 0 -19 5 -35 10 -35
6 0 10 16 10 35 0 19 5 35 10 35 6 0 10 5 10 10 0 6 -16 10 -35 10 -19 0 -35
-4 -35 -10z"/>
<path d="M372 238 c-15 -15 -15 -51 0 -66 15 -15 51 -15 66 0 28 28 7 78 -33
78 -12 0 -26 -5 -33 -12z m56 -32 c-2 -13 -10 -21 -23 -21 -23 0 -33 34 -14
45 20 13 40 -1 37 -24z"/>
<path d="M470 230 c-6 -12 -8 -30 -5 -40 8 -25 50 -37 70 -20 21 18 18 40 -5
40 -11 0 -20 -5 -20 -11 0 -5 5 -7 10 -4 6 3 10 1 10 -4 0 -17 -40 -13 -46 4
-9 22 15 47 37 40 11 -4 19 -2 19 4 0 20 -59 12 -70 -9z"/>
<path d="M570 205 c0 -43 1 -45 30 -45 17 0 30 5 30 10 0 6 -9 10 -20 10 -27
0 -25 18 3 23 22 4 22 4 -3 15 -24 10 -24 11 -2 11 34 1 26 21 -8 21 -29 0
-30 -2 -30 -45z"/>
<path d="M640 240 c0 -5 7 -10 15 -10 10 0 15 -11 15 -35 0 -19 5 -35 10 -35
6 0 10 16 10 35 0 19 5 35 10 35 6 0 10 5 10 10 0 6 -16 10 -35 10 -19 0 -35
-4 -35 -10z"/>
<path d="M730 205 c0 -25 5 -45 10 -45 6 0 10 9 10 20 0 11 7 20 15 20 8 0 15
-9 15 -20 0 -11 5 -20 10 -20 6 0 10 20 10 45 0 25 -4 45 -10 45 -5 0 -10 -7
-10 -15 0 -8 -7 -15 -15 -15 -8 0 -15 7 -15 15 0 8 -4 15 -10 15 -5 0 -10 -20
-10 -45z"/>
<path d="M820 205 c0 -43 1 -45 30 -45 17 0 30 5 30 10 0 6 -9 10 -20 10 -11
0 -20 5 -20 10 0 6 9 10 20 10 27 0 25 18 -2 23 l-23 4 23 2 c33 2 27 21 -8
21 -29 0 -30 -2 -30 -45z"/>
<path d="M900 205 c0 -25 5 -45 10 -45 6 0 10 7 10 17 0 15 1 15 18 0 23 -21
39 -22 23 -3 -8 10 -9 21 -3 33 14 27 4 43 -29 43 -28 0 -29 -2 -29 -45z m42
20 c0 -5 -5 -11 -11 -13 -6 -2 -11 4 -11 13 0 9 5 15 11 13 6 -2 11 -8 11 -13z"/>
</g>
</svg>
